<?xml version="1.0" encoding="UTF-8"?>
<svg version="1.1" xmlns="http://www.w3.org/2000/svg" width="128" height="128">
<path d="M0 0 C5.31219123 0.50069958 10.38972602 1.19498504 15.5625 2.5625 C16.59503906 2.83191406 17.62757812 3.10132812 18.69140625 3.37890625 C19.45324219 3.58386719 20.21507813 3.78882812 21 4 C18.43075944 6.70811843 15.94953588 8.83027847 12.75 10.75 C11.69039062 11.39195313 11.69039062 11.39195313 10.609375 12.046875 C9.81273437 12.51867187 9.81273437 12.51867187 9 13 C9.31237804 15.88949684 9.64338879 17.58633099 11.5625 19.8125 C15.07283088 21.5226612 18.21897209 21.64798535 22 21 C24.30299557 20.01469777 26.4608075 18.93382402 28.62890625 17.6796875 C32.17588043 16.66292719 34.80470415 17.37589891 38 19 C40.89631627 21.20630622 43.40371653 23.70412035 45.9375 26.3125 C46.62134766 26.97701172 47.30519531 27.64152344 48.00976562 28.32617188 C48.65494141 28.97779297 49.30011719 29.62941406 49.96484375 30.30078125 C50.5487085 30.89028564 51.13257324 31.47979004 51.73413086 32.0871582 C53.38523653 34.58212694 53.46219804 36.06676257 53 39 C50.38058783 40.74627478 48.96175123 41.38722388 46 42 C45.855625 42.804375 45.71125 43.60875 45.5625 44.4375 C45 47 45 47 44 48 C42.00041636 48.04080783 39.99954746 48.04254356 38 48 C38.04125 48.78375 38.0825 49.5675 38.125 50.375 C38 53 38 53 36 55 C33.2109375 55.4375 33.2109375 55.4375 30 55 C27.2265625 52.8125 27.2265625 52.8125 24.625 50 C23.31402344 48.6078125 23.31402344 48.6078125 21.9765625 47.1875 C21.32429688 46.465625 20.67203125 45.74375 20 45 C22.69535893 48.47885822 22.69535893 48.47885822 25.8125 51.5625 C26.204375 52.036875 26.59625 52.51125 27 53 C26.74853421 55.13745922 26.54074221 56.45925779 25 58 C22.29125977 58.38183594 22.29125977 58.38183594 19 58 C16.83246037 56.34656478 15.17432833 54.85591107 13.33984375 52.890625 C12.82748672 52.36740662 12.3151297 51.84418823 11.7872467 51.30511475 C10.15590209 49.63368937 8.54642227 47.94299382 6.9375 46.25 C5.32090571 44.57574774 3.70005941 42.90575662 2.07704163 41.23773193 C1.07058232 40.20048257 0.06854455 39.15891782 -0.92823792 38.11236572 C-3.77803444 35.14232108 -6.73061898 32.49991877 -10 30 C-7.98086853 23.0449018 -5.73400143 16.19969087 -3.3125 9.375 C-2.83200195 8.01181641 -2.83200195 8.01181641 -2.34179688 6.62109375 C-1.56326686 4.41332207 -0.78264756 2.20631463 0 0 Z M35 31 C35.92652701 32.17539996 36.86663387 33.34010577 37.8125 34.5 C38.33457031 35.1496875 38.85664062 35.799375 39.39453125 36.46875 C40.99204833 38.34509128 40.99204833 38.34509128 44 38 C42.88121617 36.82737096 41.75476949 35.66204862 40.625 34.5 C39.99851562 33.8503125 39.37203125 33.200625 38.7265625 32.53125 C37.13524093 30.77882569 37.13524093 30.77882569 35 31 Z M28 39 C29.98 41.31 31.96 43.62 34 46 C34.66 45.67 35.32 45.34 36 45 C35.0479279 43.99403703 34.08812654 42.99538437 33.125 42 C32.32449219 41.1646875 32.32449219 41.1646875 31.5078125 40.3125 C30.08175012 38.78114478 30.08175012 38.78114478 28 39 Z " fill="#F9C784" transform="translate(38,62)"/>
<path d="M0 0 C3.3 9.24 6.6 18.48 10 28 C6.89448334 31.10551666 5.10801767 31.81323934 1 33 C0.11957031 32.09636719 -0.76085937 31.19273438 -1.66796875 30.26171875 C-2.84087506 29.07004593 -4.01406728 27.87865447 -5.1875 26.6875 C-5.76564453 26.09259766 -6.34378906 25.49769531 -6.93945312 24.88476562 C-12.47388272 19.23766356 -12.47388272 19.23766356 -19.75 16.5625 C-22.8702572 16.98253462 -24.65304805 17.70100227 -27.4375 19.0625 C-31.67186252 21.08328346 -34.37911537 21.2938477 -39 20 C-42 18 -42 18 -42.57421875 15.63671875 C-42 13 -42 13 -39.33203125 10.83203125 C-38.16985373 10.14003755 -36.99596266 9.46742594 -35.8125 8.8125 C-35.23435547 8.47025391 -34.65621094 8.12800781 -34.06054688 7.77539062 C-27.78375877 4.12279642 -22.15005408 2.50900865 -15.0625 1.375 C-14.27681641 1.2409375 -13.49113281 1.106875 -12.68164062 0.96875 C-8.29587896 0.24941169 -4.5291548 0 0 0 Z " fill="#F9C784" transform="translate(90,62)"/>
<path d="M0 0 C4.02550319 1.3418344 4.88285636 3.4227573 7 7 C7 7.66 7 8.32 7 9 C7.62648438 9.13277344 8.25296875 9.26554687 8.8984375 9.40234375 C9.71570313 9.57894531 10.53296875 9.75554688 11.375 9.9375 C12.18710938 10.11152344 12.99921875 10.28554688 13.8359375 10.46484375 C16 11 16 11 18 12 C16.97066312 15.00223256 16.14483477 16.85516523 13.875 19.125 C11.00827051 23.52065188 11.67803259 27.89323906 12 33 C10.87464844 32.62294922 10.87464844 32.62294922 9.7265625 32.23828125 C2.16833749 29.98223676 -2.73289685 29.86485594 -10 33 C-9.93039063 32.29875 -9.86078125 31.5975 -9.7890625 30.875 C-9.47571001 25.38387072 -9.52375492 21.86848845 -13 17.4375 C-13.556875 16.81746094 -14.11375 16.19742187 -14.6875 15.55859375 C-16 14 -16 14 -16 12 C-14.89591797 11.70609375 -14.89591797 11.70609375 -13.76953125 11.40625 C-8.47100806 9.78239613 -4.785891 8.62497827 -1.8125 3.75 C-1.17545615 2.51643099 -0.55841857 1.2710964 0 0 Z " fill="#F9C784" transform="translate(63,8)"/>
<path d="M0 0 C2.95433357 7.22879459 5.7047936 14.5143077 8.3125 21.875 C8.68439453 22.89335938 9.05628906 23.91171875 9.43945312 24.9609375 C9.78556641 25.940625 10.13167969 26.9203125 10.48828125 27.9296875 C10.80321533 28.80866699 11.11814941 29.68764648 11.44262695 30.59326172 C12.0435647 33.18811249 11.98224978 34.54283168 11 37 C9.328125 38.046875 9.328125 38.046875 7.25 38.75 C6.57453125 38.99234375 5.8990625 39.2346875 5.203125 39.484375 C2.74030246 40.06078028 0.52152248 40.03439861 -2 40 C-3.73898074 35.2169481 -5.46595517 30.42979772 -7.18188477 25.63842773 C-7.76745831 24.00865984 -8.35631098 22.3800663 -8.94848633 20.75268555 C-9.79850716 18.41495012 -10.63669332 16.07326205 -11.47265625 13.73046875 C-11.74030289 13.00224411 -12.00794952 12.27401947 -12.28370667 11.52372742 C-14.11387171 6.34161512 -14.11387171 6.34161512 -13 3 C-11.328125 2.05078125 -11.328125 2.05078125 -9.25 1.3125 C-8.23679687 0.93544922 -8.23679687 0.93544922 -7.203125 0.55078125 C-4.73286158 -0.0667846 -2.53729792 -0.03697385 0 0 Z " fill="#F9C784" transform="translate(104,54)"/>
<path d="M0 0 C5.43148733 0.36823643 9.20812462 1.24467166 14 4 C11.91241244 12.25183022 9.2459577 20.20119651 6.3125 28.1875 C5.68891602 29.90163086 5.68891602 29.90163086 5.05273438 31.65039062 C4.03907179 34.43504991 3.02143976 37.21818617 2 40 C-3.2922317 39.34561841 -7.22578062 38.24096012 -12 36 C-10.48335342 28.24272568 -8.05720998 20.94941225 -5.4375 13.5 C-5.02564453 12.30890625 -4.61378906 11.1178125 -4.18945312 9.890625 C-1.13650307 1.13650307 -1.13650307 1.13650307 0 0 Z " fill="#F9C784" transform="translate(24,54)"/>
<path d="M0 0 C0.8353125 0.928125 0.8353125 0.928125 1.6875 1.875 C4.06645178 4.06106379 5.96357096 4.98785699 9 6 C8.690625 6.53625 8.38125 7.0725 8.0625 7.625 C6.82172561 10.3984957 6.4090325 13.00042837 6 16 C5.113125 15.814375 4.22625 15.62875 3.3125 15.4375 C0.14821189 15.01957516 -1.94839642 15.19222258 -5 16 C-7 8.375 -7 8.375 -7 5 C-6.401875 4.9175 -5.80375 4.835 -5.1875 4.75 C-2.4033704 3.79544128 -1.56688858 2.42867729 0 0 Z " fill="#F9C784" transform="translate(102,24)"/>
<path d="M0 0 C0.8353125 0.928125 0.8353125 0.928125 1.6875 1.875 C4.06645178 4.06106379 5.96357096 4.98785699 9 6 C8.690625 6.53625 8.38125 7.0725 8.0625 7.625 C6.82172561 10.3984957 6.4090325 13.00042837 6 16 C5.113125 15.814375 4.22625 15.62875 3.3125 15.4375 C0.14821189 15.01957516 -1.94839642 15.19222258 -5 16 C-7 8.375 -7 8.375 -7 5 C-6.401875 4.9175 -5.80375 4.835 -5.1875 4.75 C-2.4033704 3.79544128 -1.56688858 2.42867729 0 0 Z " fill="#F9C784" transform="translate(25,24)"/>
</svg>
