<?xml version="1.0" encoding="UTF-8"?>
<svg version="1.1" xmlns="http://www.w3.org/2000/svg" width="128" height="128">
<path d="M0 0 C15.31359173 12.11910063 23.34188945 27.39424354 25.75 46.75 C26.80360769 63.34432114 21.78935109 78.6811531 11.75 91.75 C11.05777344 92.69166016 11.05777344 92.69166016 10.3515625 93.65234375 C0.68836432 105.96873219 -14.72247139 113.16420241 -29.94140625 115.2578125 C-48.14979259 117.13863913 -65.05063428 112.56097131 -79.49609375 101.12890625 C-91.94147088 90.37821878 -98.63731265 77.16026491 -102 61.1875 C-103.37665082 42.25855127 -99.80321599 24.41637209 -87.26757812 9.71972656 C-64.72421083 -15.08430098 -27.49655521 -19.77822393 0 0 Z " fill="#F8C683" transform="translate(102.25,12.25)"/>
<path d="M0 0 C5.05844016 2.55298456 9.3577403 6.05243416 12.91015625 10.46875 C13.6796875 13.25390625 13.6796875 13.25390625 13.91015625 15.46875 C12.26015625 15.79875 10.61015625 16.12875 8.91015625 16.46875 C8.50925781 15.93765625 8.10835937 15.4065625 7.6953125 14.859375 C2.59266487 8.51867001 -2.00891045 5.08075702 -10.203125 4.09375 C-18.50485462 3.78158155 -26.05997383 4.74618385 -32.34375 10.55078125 C-33.70412467 11.98130416 -35.02770119 13.44829595 -36.30078125 14.95703125 C-37.18636719 15.70533203 -37.18636719 15.70533203 -38.08984375 16.46875 C-40.31640625 16.19921875 -40.31640625 16.19921875 -42.08984375 15.46875 C-41.94487487 10.68477712 -39.56609388 8.30932465 -36.265625 5.1796875 C-25.37881551 -3.38121476 -12.87516554 -4.74973169 0 0 Z " fill="#282622" transform="translate(78.08984375,78.53125)"/>
<path d="M0 0 C1.9375 1.0625 1.9375 1.0625 3 3 C3.5 6.4375 3.5 6.4375 3 10 C0.875 12.5 0.875 12.5 -2 14 C-5.56090901 14 -7.25697245 13.69349238 -9.875 11.25 C-11.24863504 8.50272993 -11.53062116 7.03212094 -11 4 C-7.99829475 -0.44252378 -5.15110438 -0.6555951 0 0 Z " fill="#282522" transform="translate(48,44)"/>
<path d="M0 0 C1.9375 1.0625 1.9375 1.0625 3 3 C3.36528977 6.4093712 3.6140629 8.88023824 1.9375 11.9375 C-1.11976176 13.6140629 -3.5906288 13.36528977 -7 13 C-8.9375 11.9375 -8.9375 11.9375 -10 10 C-10.36528977 6.5906288 -10.6140629 4.11976176 -8.9375 1.0625 C-5.88023824 -0.6140629 -3.4093712 -0.36528977 0 0 Z " fill="#21201F" transform="translate(87,44)"/>
</svg>
