<?xml version="1.0" encoding="UTF-8"?>
<svg version="1.1" xmlns="http://www.w3.org/2000/svg" width="128" height="128">
<path d="M0 0 C0.66 0 1.32 0 2 0 C2.9932147 1.75150736 3.94409004 3.52709805 4.875 5.3125 C7.03791653 8.88681121 8.21968927 10.66501812 12.09375 12.328125 C14.22177189 12.80439657 16.36693517 13.21141334 18.5234375 13.53515625 C19.34070312 13.68855469 20.15796875 13.84195313 21 14 C21.495 14.99 21.495 14.99 22 16 C21.4225 16.55945313 20.845 17.11890625 20.25 17.6953125 C15.40229551 22.93016005 13.44101316 26.36961888 13.5 33.625 C13.6270291 35.75273739 13.78004243 37.87985344 14 40 C13.32453125 39.79503906 12.6490625 39.59007812 11.953125 39.37890625 C11.06109375 39.10949219 10.1690625 38.84007812 9.25 38.5625 C8.36828125 38.29566406 7.4865625 38.02882812 6.578125 37.75390625 C5.72734375 37.50511719 4.8765625 37.25632813 4 37 C3.33742188 36.7628125 2.67484375 36.525625 1.9921875 36.28125 C-0.82362609 35.88372338 -2.54862667 36.795436 -5.125 37.9375 C-9.83728814 40 -9.83728814 40 -12 40 C-11.99097656 39.01 -11.98195313 38.02 -11.97265625 37 C-12.01066988 27.88283139 -12.01066988 27.88283139 -16.625 20.25 C-17.27726562 19.67765625 -17.92953125 19.1053125 -18.6015625 18.515625 C-19.06304688 18.01546875 -19.52453125 17.5153125 -20 17 C-19.505 15.515 -19.505 15.515 -19 14 C-16.5234375 13.4375 -16.5234375 13.4375 -13.375 13 C-9.29455765 12.12076183 -7.47976254 11.55452006 -4.71875 8.36328125 C-3.51916493 6.37837459 -2.37694058 4.35726663 -1.3046875 2.30078125 C-0.87414062 1.54152344 -0.44359375 0.78226562 0 0 Z " fill="#FA9F4F" transform="translate(23,83)"/>
<path d="M0 0 C3 1 3 1 4.18359375 3.1796875 C4.59738281 4.06914063 5.01117188 4.95859375 5.4375 5.875 C7.37237638 9.3213447 8.3928487 10.73635831 12.05859375 12.328125 C15.03846507 13.04413648 17.96042195 13.61636394 21 14 C21 18 21 18 19.72265625 19.39453125 C18.90087891 20.09642578 18.90087891 20.09642578 18.0625 20.8125 C13.23322702 25.97129984 14.01715836 33.33397561 14 40 C13.32453125 39.79503906 12.6490625 39.59007812 11.953125 39.37890625 C11.06109375 39.10949219 10.1690625 38.84007812 9.25 38.5625 C8.36828125 38.29566406 7.4865625 38.02882812 6.578125 37.75390625 C5.72734375 37.50511719 4.8765625 37.25632813 4 37 C3.33742188 36.7628125 2.67484375 36.525625 1.9921875 36.28125 C-0.82362609 35.88372338 -2.54862667 36.795436 -5.125 37.9375 C-9.83728814 40 -9.83728814 40 -12 40 C-11.9071875 39.10539062 -11.814375 38.21078125 -11.71875 37.2890625 C-11.29541921 30.19827171 -11.3957552 25.76682109 -16 20.125 C-17.30136539 18.71970612 -18.62434912 17.33266179 -20 16 C-19.67 15.34 -19.34 14.68 -19 14 C-17.13176109 13.64933686 -15.25479858 13.34470301 -13.375 13.0625 C-9.30038158 12.14838513 -7.45387031 11.50966167 -4.6484375 8.359375 C-2.9450786 5.62558912 -1.39853411 2.90048096 0 0 Z " fill="#FB8931" transform="translate(103,83)"/>
<path d="M0 0 C2.76870505 1.46569802 5.08878618 3.38710153 7.5 5.375 C8.90955134 6.47380485 10.32105574 7.57010832 11.734375 8.6640625 C12.44400391 9.2199707 13.15363281 9.77587891 13.88476562 10.34863281 C25.54642333 20.13354013 25.54642333 20.13354013 39.8515625 23.0390625 C47.11348181 20.64244893 53.03024008 15.64598124 59 11 C61.03462727 9.42253827 63.07141265 7.84913773 65.12182617 6.29223633 C66.38305071 5.33057047 67.63159777 4.35196336 68.86450195 3.35424805 C71.91902295 1.00193557 73.8817089 0.01344497 77.74609375 -0.42578125 C81 0 81 0 84 2 C84.875 4.3125 84.875 4.3125 85 7 C82.84850406 11.34597557 79.71483668 14.57705074 76.30859375 17.95703125 C75.48972435 18.77877083 75.48972435 18.77877083 74.65431213 19.61711121 C73.50612867 20.76664942 72.35544062 21.91369089 71.20239258 23.05834961 C69.43267911 24.81729155 67.67396376 26.58672966 65.91601562 28.35742188 C64.79751627 29.47460073 63.67839725 30.59115961 62.55859375 31.70703125 C62.031483 32.23819046 61.50437225 32.76934967 60.96128845 33.31660461 C57.22995283 37 57.22995283 37 55 37 C55.40678539 32.5366235 58.5190219 30.20484576 61.6015625 27.31640625 C62.74258797 26.21330471 63.88320062 25.10977603 65.0234375 24.00585938 C66.82646434 22.27742526 68.63387162 20.55411637 70.44921875 18.83862305 C72.20065434 17.17765614 73.93307293 15.49863355 75.6640625 13.81640625 C76.48736557 13.05367149 76.48736557 13.05367149 77.32730103 12.27552795 C79.04064259 10.66444012 79.04064259 10.66444012 81 8 C80.98505899 5.2002699 80.98505899 5.2002699 80 3 C74.65336645 3.41770575 71.17341081 6.43229272 67 9.5 C66.245979 10.03592773 65.49195801 10.57185547 64.71508789 11.12402344 C61.24922835 13.59245258 57.84462537 16.09291805 54.55859375 18.796875 C47.95208869 23.98947222 41.89812238 27.02140126 33.3203125 26.14453125 C24.40181311 24.35712048 16.94863826 17.506914 10 12 C8.22090754 10.60098229 6.44122963 9.20332922 4.65136719 7.81811523 C3.23033432 6.70733666 1.8365523 5.56193674 0.4453125 4.4140625 C-1.94023014 2.71815718 -1.94023014 2.71815718 -4.8203125 3.2734375 C-5.89925781 3.63308594 -5.89925781 3.63308594 -7 4 C-6.62799279 9.01866341 -4.02539067 11.45663135 -0.5390625 14.74609375 C0.28049423 15.54648827 0.28049423 15.54648827 1.11660767 16.36305237 C2.86012039 18.0644252 4.61610078 19.75204879 6.375 21.4375 C8.12591312 23.12016128 9.8734794 24.80573721 11.61196899 26.50123596 C12.69190436 27.55412485 13.77895377 28.59978299 14.87411499 29.63682556 C18.90049533 33.55678912 21.7360011 37.30369119 22.29296875 42.9921875 C22.25816406 43.94351563 22.22335938 44.89484375 22.1875 45.875 C22.14689453 47.32519531 22.14689453 47.32519531 22.10546875 48.8046875 C22.07066406 49.52914062 22.03585938 50.25359375 22 51 C21.34 51 20.68 51 20 51 C19.93683594 50.2265625 19.87367187 49.453125 19.80859375 48.65625 C19.68613281 47.6146875 19.56367187 46.573125 19.4375 45.5 C19.33308594 44.4790625 19.22867188 43.458125 19.12109375 42.40625 C16.00784487 32.94718024 5.65098725 25.61423627 -1.33691406 18.90991211 C-2.75181945 17.54948105 -4.1534571 16.17529327 -5.5546875 14.80078125 C-6.38468262 13.99809814 -7.21467773 13.19541504 -8.06982422 12.3684082 C-10.16687821 9.79523331 -10.75971576 8.28148857 -11 5 C-8.97563486 -0.60593423 -5.59913977 -0.58039863 0 0 Z " fill="#FAAD60" transform="translate(27,23)"/>
<path d="M0 0 C1.32 0 2.64 0 4 0 C5.484375 1.6796875 5.484375 1.6796875 6.75 3.875 C7.17796875 4.59429687 7.6059375 5.31359375 8.046875 6.0546875 C9 8 9 8 9 10 C7.125 9.75 7.125 9.75 5 9 C3.75 6.9375 3.75 6.9375 3 5 C2.34 5 1.68 5 1 5 C-0.06080085 7.0736559 -1.09809524 9.15935086 -2.125 11.25 C-4.42187845 15.48614885 -6.43542417 18.13776291 -11.0859375 19.75390625 C-15.01489121 20.81153339 -18.96784457 21.476407 -23 22 C-22.0843974 23.22995949 -21.16745797 24.45892386 -20.25 25.6875 C-19.73953125 26.37199219 -19.2290625 27.05648437 -18.703125 27.76171875 C-17.01478794 30.08471816 -17.01478794 30.08471816 -14.78125 32.21875 C-12.24149377 36.18433428 -12.7687327 39.25573894 -13.25 43.8125 C-13.31574219 44.60076172 -13.38148437 45.38902344 -13.44921875 46.20117188 C-13.6133743 48.13586232 -13.80405825 50.06826994 -14 52 C-12.69675781 51.45859375 -12.69675781 51.45859375 -11.3671875 50.90625 C-10.21476562 50.4421875 -9.06234375 49.978125 -7.875 49.5 C-6.73804687 49.0359375 -5.60109375 48.571875 -4.4296875 48.09375 C1.832617 46.09665973 5.86894331 47.04854829 11.875 49.5 C13.02742188 49.9640625 14.17984375 50.428125 15.3671875 50.90625 C16.23601562 51.2671875 17.10484375 51.628125 18 52 C17.81179687 50.91203125 17.62359375 49.8240625 17.4296875 48.703125 C15.72061135 36.21832372 15.72061135 36.21832372 19.1953125 31.3046875 C20.96223741 29.16661319 22.88256423 27.24649647 24.875 25.3203125 C25.926875 24.17175781 25.926875 24.17175781 27 23 C26.505 21.515 26.505 21.515 26 20 C26.99 19.67 27.98 19.34 29 19 C29.66 19.33 30.32 19.66 31 20 C30.41472053 23.92320142 28.4922901 26.17449928 26 29.1875 C25.278125 30.06792969 24.55625 30.94835937 23.8125 31.85546875 C22.90474803 32.92951149 21.99437957 34.00562043 21 35 C20.91330568 36.4887186 20.89296506 37.981445 20.90234375 39.47265625 C20.90556641 40.37177734 20.90878906 41.27089844 20.91210938 42.19726562 C20.92048828 43.14279297 20.92886719 44.08832031 20.9375 45.0625 C20.94201172 46.01189453 20.94652344 46.96128906 20.95117188 47.93945312 C20.9629989 50.29303065 20.97947975 52.64648477 21 55 C17.36898823 56.21033726 16.24384497 55.37035855 12.91064453 53.80053711 C5.54194776 50.2471406 5.54194776 50.2471406 -2.375 50.9375 C-3.92974989 51.59487747 -5.47194707 52.28275067 -7 53 C-8.70214063 53.58097015 -10.4104103 54.1443691 -12.125 54.6875 C-13.41719164 55.12344701 -14.70906867 55.56033498 -16 56 C-16.33 55.67 -16.66 55.34 -17 55 C-16.98969323 53.61327065 -16.91657791 52.22689503 -16.81640625 50.84375 C-16.01570127 41.00129459 -16.01570127 41.00129459 -18.70703125 31.77734375 C-20.69360622 29.63327455 -22.72320291 27.8241808 -25 26 C-27 23 -27 23 -27 20 C-25.80503906 19.81308594 -24.61007813 19.62617187 -23.37890625 19.43359375 C-13.38142651 17.67555446 -13.38142651 17.67555446 -5.94140625 11.328125 C-4.33940295 8.66659403 -3.02738015 5.92326883 -1.7265625 3.10546875 C-1.15679687 2.08066406 -0.58703125 1.05585937 0 0 Z " fill="#FB9744" transform="translate(62,60)"/>
<path d="M0 0 C4.93861133 2.11654771 7.19508669 5.06792815 9.3046875 9.86328125 C11.33005216 16.08729512 10.14960789 21.18288761 7.31640625 26.87890625 C4.59162925 31.26927394 1.7162698 34.35805199 -3.4296875 35.57421875 C-7.9724234 35.88489218 -11.22313992 35.36016963 -14.875 32.5625 C-19.39645981 28.01966213 -22.10875512 22.36148849 -22.5 15.9375 C-21.72833652 9.86065011 -19.8323727 5.8323727 -15.5 1.5 C-10.30958187 -0.72446491 -5.56121107 -0.73334651 0 0 Z M-17.375 7 C-20.17654055 12.17207486 -19.95804198 17.75988051 -18.3046875 23.3515625 C-16.21707249 28.03553903 -13.71500133 30.73679936 -9 33 C-5.51686382 33.49759088 -3.60164126 33.25784626 -0.375 31.875 C3.36672268 28.92100841 5.50105027 25.49684919 7 21 C7.40359636 16.42073361 7.56596308 12.33001323 5.75 8.0625 C2.61927576 4.37271787 0.43206969 2.883162 -4.375 2.125 C-9.97560938 1.68357266 -13.12427538 3.42044243 -17.375 7 Z " fill="#FAAB5D" transform="translate(70,7)"/>
<path d="M0 0 C3 2 3 2 3.875 4.3125 C4.09017276 8.9387144 1.41485199 11.54391565 -1.60375977 14.86254883 C-2.62755957 15.89941847 -3.65707111 16.93067092 -4.69140625 17.95703125 C-5.23731918 18.50485764 -5.78323212 19.05268402 -6.34568787 19.61711121 C-7.49387133 20.76664942 -8.64455938 21.91369089 -9.79760742 23.05834961 C-11.56732089 24.81729155 -13.32603624 26.58672966 -15.08398438 28.35742188 C-16.20248373 29.47460073 -17.32160275 30.59115961 -18.44140625 31.70703125 C-18.968517 32.23819046 -19.49562775 32.76934967 -20.03871155 33.31660461 C-23.77004717 37 -23.77004717 37 -26 37 C-25.59321461 32.5366235 -22.4809781 30.20484576 -19.3984375 27.31640625 C-18.25741203 26.21330471 -17.11679938 25.10977603 -15.9765625 24.00585938 C-14.17353566 22.27742526 -12.36612838 20.55411637 -10.55078125 18.83862305 C-8.79934566 17.17765614 -7.06692707 15.49863355 -5.3359375 13.81640625 C-4.78706879 13.30791641 -4.23820007 12.79942657 -3.67269897 12.27552795 C-1.95935741 10.66444012 -1.95935741 10.66444012 0 8 C-0.01494101 5.2002699 -0.01494101 5.2002699 -1 3 C-6.3989059 3.40306174 -9.97668165 6.52890586 -14.1875 9.625 C-15.70042967 10.71627223 -17.21345021 11.80741849 -18.7265625 12.8984375 C-19.45649414 13.42920898 -20.18642578 13.95998047 -20.93847656 14.50683594 C-23.62520575 16.45283733 -26.34000197 18.35439249 -29.0625 20.25 C-29.83722656 20.79140625 -30.61195312 21.3328125 -31.41015625 21.890625 C-31.93480469 22.25671875 -32.45945312 22.6228125 -33 23 C-33.66 22.67 -34.32 22.34 -35 22 C-31.04460771 17.81374823 -26.75673934 14.41103795 -22.125 11 C-21.10212891 10.23816406 -21.10212891 10.23816406 -20.05859375 9.4609375 C-18.70343522 8.4542483 -17.34475749 7.45227736 -15.98242188 6.45532227 C-14.66811715 5.49047369 -13.36193771 4.51445134 -12.06445312 3.52709961 C-7.80027845 0.33746523 -5.37516092 -0.72357935 0 0 Z " fill="#FBA04C" transform="translate(108,23)"/>
<path d="M0 0 C0.99 0 1.98 0 3 0 C3.4640625 1.8253125 3.4640625 1.8253125 3.9375 3.6875 C5.6901254 8.52440246 8.65451461 10.01431011 13.13671875 12.1875 C13.75160156 12.455625 14.36648437 12.72375 15 13 C14 16 14 16 12.2578125 16.88671875 C11.55398437 17.15097656 10.85015625 17.41523437 10.125 17.6875 C7.5203599 18.87779252 6.26842321 19.54297878 4.8046875 22.03515625 C3.88031557 24.47847165 3.88031557 24.47847165 3 28 C2.01 28 1.02 28 0 28 C-0.24234375 27.45730469 -0.4846875 26.91460937 -0.734375 26.35546875 C-3.26579129 20.95186859 -5.16034351 18.2262153 -10.75 15.8125 C-11.4925 15.544375 -12.235 15.27625 -13 15 C-12.67 14.01 -12.34 13.02 -12 12 C-10.88625 11.525625 -9.7725 11.05125 -8.625 10.5625 C-3.94500099 8.54525905 -2.77959207 6.80537112 -0.8125 2.25 C-0.544375 1.5075 -0.27625 0.765 0 0 Z M1 6 C-0.1446875 7.423125 -0.1446875 7.423125 -1.3125 8.875 C-3.15534046 11.16609895 -4.46837417 12.31224944 -7 14 C-5.6078125 15.1446875 -5.6078125 15.1446875 -4.1875 16.3125 C-2.01723899 18.11848552 0.05568065 19.9476629 2 22 C2.61875 20.824375 2.61875 20.824375 3.25 19.625 C5.0392777 16.94108344 6.04988139 16.11901051 9 15 C9 14.34 9 13.68 9 13 C7.8553125 12.319375 7.8553125 12.319375 6.6875 11.625 C3.99130956 9.99474531 2.70517864 8.60264108 1 6 Z " fill="#FB9A44" transform="translate(78,61)"/>
<path d="M0 0 C0.66 0 1.32 0 2 0 C2.391875 0.928125 2.78375 1.85625 3.1875 2.8125 C5.1483276 6.26085199 6.4981954 7.29399263 10 9 C10.66 9.33 11.32 9.66 12 10 C11.67 10.99 11.34 11.98 11 13 C10.05125 13.433125 9.1025 13.86625 8.125 14.3125 C4.37011461 16.34013811 3.55569104 18.1107724 2 22 C1.34 22 0.68 22 0 22 C-0.53625 20.906875 -1.0725 19.81375 -1.625 18.6875 C-3.72529475 14.95532156 -5.969086 13.55739859 -10 12 C-10 11.34 -10 10.68 -10 10 C-9.071875 9.608125 -8.14375 9.21625 -7.1875 8.8125 C-3.73914801 6.8516724 -2.70600737 5.5018046 -1 2 C-0.67 1.34 -0.34 0.68 0 0 Z M-2.125 7.875 C-4.22054055 9.77762162 -4.22054055 9.77762162 -4 12 C-2.16666667 14.16666667 -2.16666667 14.16666667 0 16 C2.22237838 16.22054055 2.22237838 16.22054055 4.125 14.125 C6.22054055 12.22237838 6.22054055 12.22237838 6 10 C4.16666667 7.83333333 4.16666667 7.83333333 2 6 C-0.22237838 5.77945945 -0.22237838 5.77945945 -2.125 7.875 Z " fill="#FAB266" transform="translate(15,36)"/>
<path d="M0 0 C0.99 0 1.98 0 3 0 C3.185625 1.11375 3.37125 2.2275 3.5625 3.375 C4.036875 4.57125 4.51125 5.7675 5 7 C8.51400668 8.54086322 8.51400668 8.54086322 12 9 C12 9.99 12 10.98 12 12 C11.071875 12.37125 10.14375 12.7425 9.1875 13.125 C5.4739697 15.30942959 4.57312496 17.06718759 3 21 C2.01 21 1.02 21 0 21 C-0.37125 20.071875 -0.7425 19.14375 -1.125 18.1875 C-3.30942959 14.4739697 -5.06718759 13.57312496 -9 12 C-9 11.01 -9 10.02 -9 9 C-8.071875 8.62875 -7.14375 8.2575 -6.1875 7.875 C-2.4739697 5.69057041 -1.57312496 3.93281241 0 0 Z M1 5 C-0.65 6.98 -2.3 8.96 -4 11 C-3.071875 11.928125 -3.071875 11.928125 -2.125 12.875 C-0.75 14.25 0.625 15.625 2 17 C2.268125 16.401875 2.53625 15.80375 2.8125 15.1875 C3.98493467 13.02775192 5.19369282 11.64209744 7 10 C5.02 8.35 3.04 6.7 1 5 Z " fill="#FAA656" transform="translate(91,5)"/>
<path d="M0 0 C1.32 0 2.64 0 4 0 C5.484375 1.6796875 5.484375 1.6796875 6.75 3.875 C7.39195313 4.95394531 7.39195313 4.95394531 8.046875 6.0546875 C9 8 9 8 9 10 C7.125 9.75 7.125 9.75 5 9 C3.75 6.9375 3.75 6.9375 3 5 C2.34 5 1.68 5 1 5 C0.34 5.66 -0.32 6.32 -1 7 C-1.66 7 -2.32 7 -3 7 C-1.125 2.25 -1.125 2.25 0 0 Z " fill="#FBA549" transform="translate(62,60)"/>
<path d="M0 0 C0.66 0 1.32 0 2 0 C1.43066892 3.30212028 0.61232198 4.89181034 -2 7 C-4.48046875 7.73046875 -4.48046875 7.73046875 -7.1875 8.1875 C-8.08855469 8.34605469 -8.98960938 8.50460938 -9.91796875 8.66796875 C-10.60503906 8.77753906 -11.29210938 8.88710937 -12 9 C-12 8.01 -12 7.02 -12 6 C-11.30132812 5.90203125 -10.60265625 5.8040625 -9.8828125 5.703125 C-8.51769531 5.47882813 -8.51769531 5.47882813 -7.125 5.25 C-6.22007813 5.11078125 -5.31515625 4.9715625 -4.3828125 4.828125 C-1.83785757 4.22016157 -1.83785757 4.22016157 -0.6796875 1.921875 C-0.34324219 0.97054687 -0.34324219 0.97054687 0 0 Z " fill="#FB9A53" transform="translate(58,75)"/>
<path d="M0 0 C4.554787 3.80014774 8.95279259 7.65665546 13 12 C13 12.66 13 13.32 13 14 C9.09714233 12.41332422 6.66479018 9.86649519 3.75 6.875 C2.85796875 5.96492188 1.9659375 5.05484375 1.046875 4.1171875 C0.37140625 3.41851562 -0.3040625 2.71984375 -1 2 C-0.67 1.34 -0.34 0.68 0 0 Z " fill="#FAAF66" transform="translate(25,32)"/>
<path d="M0 0 C0.66 0 1.32 0 2 0 C2 2.64 2 5.28 2 8 C0.5164999 7.57742724 -0.96176424 7.13643678 -2.4375 6.6875 C-3.26121094 6.44386719 -4.08492188 6.20023437 -4.93359375 5.94921875 C-5.61550781 5.63597656 -6.29742187 5.32273437 -7 5 C-7.33 4.01 -7.66 3.02 -8 2 C-5.36 2.66 -2.72 3.32 0 4 C0 2.68 0 1.36 0 0 Z " fill="#FB9639" transform="translate(76,102)"/>
<path d="M0 0 C-1.50383297 4.21073233 -4.20664956 5.83237117 -8 8 C-8.99 8 -9.98 8 -11 8 C-9.90711818 4.72135454 -9.33827067 4.21865851 -6.625 2.3125 C-6.01914063 1.87550781 -5.41328125 1.43851563 -4.7890625 0.98828125 C-3 0 -3 0 0 0 Z " fill="#FC9F50" transform="translate(100,31)"/>
<path d="M0 0 C3.77545388 1.09068668 6.47043472 1.9083091 9 5 C8.01 5.33 7.02 5.66 6 6 C2.8125 4.1875 2.8125 4.1875 0 2 C0 1.34 0 0.68 0 0 Z " fill="#FAAC5B" transform="translate(9,72)"/>
<path d="M0 0 C-1 3 -1 3 -3.375 4.75 C-6 6 -6 6 -9 5 C-6.45523312 2.20075644 -3.92372883 0 0 0 Z " fill="#FB9334" transform="translate(119,72)"/>
<path d="M0 0 C0.66 0.33 1.32 0.66 2 1 C0.8141763 4.37503669 -0.27573689 6.64722731 -3 9 C-3.33 8.01 -3.66 7.02 -4 6 C-2.0625 2.8125 -2.0625 2.8125 0 0 Z " fill="#FC903F" transform="translate(107,63)"/>
<path d="M0 0 C2.79872437 2.52788007 4.45773019 4.20411134 5 8 C4.01 8 3.02 8 2 8 C0.25 5.6875 0.25 5.6875 -1 3 C-0.67 2.01 -0.34 1.02 0 0 Z " fill="#FAAA5C" transform="translate(20,63)"/>
<path d="M0 0 C0.66 0 1.32 0 2 0 C2 2.97 2 5.94 2 9 C1.34 9 0.68 9 0 9 C0 6.03 0 3.06 0 0 Z " fill="#FB9744" transform="translate(94,59)"/>
<path d="M0 0 C0.66 0 1.32 0 2 0 C2 2.97 2 5.94 2 9 C1.34 9 0.68 9 0 9 C0 6.03 0 3.06 0 0 Z " fill="#FAA85B" transform="translate(32,59)"/>
<path d="M0 0 C0.99 0 1.98 0 3 0 C3 1.32 3 2.64 3 4 C2.01 4 1.02 4 0 4 C0 2.68 0 1.36 0 0 Z " fill="#FB933D" transform="translate(75,95)"/>
<path d="M0 0 C1.98 0.99 1.98 0.99 4 2 C4 2.66 4 3.32 4 4 C2.68 3.34 1.36 2.68 0 2 C0 1.34 0 0.68 0 0 Z " fill="#FAAA5D" transform="translate(40,48)"/>
</svg>
